<svg viewBox="0 0 58.6 70" height="1em" width="1em" xmlns="http://www.w3.org/2000/svg">
    <g>
        <path
            d="M 8 70 L 2.1 70 A 2.029 2.029 0 0 1 0.836 69.557 A 2.694 2.694 0 0 1 0.65 69.4 Q 0 68.8 0 68 Q 0 67.6 0.15 67.25 Q 0.3 66.9 0.4 66.7 L 23.3 34.4 L 1.5 3.3 Q 1.2 2.7 1.2 2 A 1.908 1.908 0 0 1 1.762 0.639 A 2.504 2.504 0 0 1 1.8 0.6 A 2.091 2.091 0 0 1 2.417 0.164 A 1.879 1.879 0 0 1 3.2 0 L 9.2 0 A 3.613 3.613 0 0 1 9.854 0.056 Q 10.411 0.158 10.8 0.45 Q 11.377 0.883 11.862 1.64 A 6.489 6.489 0 0 1 11.9 1.7 L 29.5 26.7 L 47 1.7 A 3.587 3.587 0 0 1 47.496 0.949 A 2.973 2.973 0 0 1 48.05 0.45 A 2.521 2.521 0 0 1 49.179 0.026 A 3.271 3.271 0 0 1 49.6 0 L 55.3 0 A 1.908 1.908 0 0 1 56.661 0.562 A 2.504 2.504 0 0 1 56.7 0.6 A 2.091 2.091 0 0 1 57.136 1.217 A 1.879 1.879 0 0 1 57.3 2 Q 57.3 2.7 56.9 3.3 L 35.4 34.5 L 58.2 66.7 Q 58.385 66.885 58.484 67.198 A 1.86 1.86 0 0 1 58.5 67.25 A 2.634 2.634 0 0 1 58.595 67.827 A 3.075 3.075 0 0 1 58.6 68 A 1.908 1.908 0 0 1 58.038 69.361 A 2.504 2.504 0 0 1 58 69.4 A 2.024 2.024 0 0 1 56.558 69.999 A 2.657 2.657 0 0 1 56.5 70 L 50.4 70 Q 49.5 70 48.85 69.5 Q 48.2 69 47.7 68.3 L 29.1 42.4 L 10.6 68.3 A 6.666 6.666 0 0 1 9.865 69.168 A 5.798 5.798 0 0 1 9.5 69.5 A 2.133 2.133 0 0 1 8.431 69.969 A 2.877 2.877 0 0 1 8 70 Z" />
    </g>
</svg>